<?xml version="1.0" encoding="utf-8"?>
<!-- Generator: Adobe Illustrator 23.0.1, SVG Export Plug-In . SVG Version: 6.00 Build 0)  -->
<svg version="1.1" id="Layer_1" xmlns="http://www.w3.org/2000/svg" xmlns:xlink="http://www.w3.org/1999/xlink" x="0px" y="0px"
	 viewBox="0 0 500 500" style="enable-background:new 0 0 500 500;" xml:space="preserve">
<style type="text/css">
	.st0{fill:#FF6000;}
	.st1{fill:#FFFFFF;}
	.st2{display:none;}
	.st3{display:inline;fill:#FF6000;}
	.st4{display:inline;fill:#FFFFFF;}
	.st5{fill:#FFCA83;}
	.st6{fill:#F7931E;}
	.st7{fill:#FBB03B;}
	.st8{fill:#4C4C4C;}
	.st9{fill:#FF8F8F;}
</style>
<g>
	<g>
		<path class="st0" d="M75.94,356.31c-5.59-0.25-9.88-3.06-12.41-8.12c-1.67-3.34-2.18-7.43-1.51-12.16
			c0.7-6.03,0.61-12.9-0.29-20.42c-0.77-5.98-1.52-22.14-2.28-49.35c-0.19-4.45-0.52-12.52-0.98-24.17
			c-0.47-11.63-0.75-21.81-0.85-30.24c-0.1-8.34-0.05-16.55,0.14-24.41l-0.55-6.11c-0.23-4.2,0.49-7.69,2.14-10.36
			c1.7-2.75,4.63-4.88,8.69-6.31c4.48-1.6,9.05-2.41,13.57-2.41c7.71,0,15.47,2.35,23.07,6.99c9.96,5.78,18.06,14.77,24.02,26.69
			c6.44,12.88,9.62,27.5,9.43,43.45c0.19,11.81-2.4,23.56-7.7,34.93c-7.4,16.01-18.55,26.29-33.12,30.57
			c-1.89,0.63-3.45,1.04-4.77,1.25c-1.28,0.21-2.18,0.4-2.8,0.55c0.02,0.54,0.08,1.27,0.2,2.25c1.17,6.9,1.46,17.25,0.88,31.63
			c-0.01,2.42-0.61,4.84-1.76,7.2c-2.31,5.51-6.9,8.54-12.94,8.54L75.94,356.31z M84.91,195.98c0.19,6.53,0.83,18.44,1.96,36.41
			c1.13,17.83,1.6,31.86,1.42,41.72c0,1.88,0.16,3.01,0.31,3.66c0.66-0.16,1.76-0.54,3.48-1.4c3.06-1.45,5.61-3.63,7.86-6.68
			c2.74-3.6,4.7-7.34,5.87-11.18c5.67-17.37,4.6-34.27-3.15-50.31c-2.69-5.38-6.19-9.74-10.36-12.92c-2.54-1.9-4.97-3.09-7.25-3.54
			C84.96,192.74,84.91,194.11,84.91,195.98z"/>
		<path class="st1" d="M81.61,166.27c6.99,0,13.99,2.13,20.99,6.4c9.38,5.45,16.89,13.8,22.53,25.06c6.2,12.39,9.2,26.28,9.01,41.67
			c0.18,11.26-2.25,22.34-7.32,33.23c-6.95,15.02-17.18,24.5-30.69,28.44c-1.69,0.56-3.1,0.94-4.22,1.13
			c-3.38,0.56-5.31,1.13-5.77,1.69c-0.47,0.56-0.52,2.44-0.14,5.63c1.13,6.57,1.41,16.89,0.84,30.97c0,1.88-0.47,3.76-1.41,5.63
			c-1.69,4.13-4.79,6.2-9.29,6.2c-4.13-0.19-7.14-2.16-9.01-5.91c-1.32-2.63-1.69-5.91-1.13-9.86c0.75-6.38,0.65-13.52-0.28-21.4
			c-0.75-5.82-1.51-22.15-2.25-48.99c-0.19-4.5-0.52-12.57-0.99-24.22c-0.47-11.64-0.75-21.68-0.84-30.13
			c-0.1-8.45-0.05-16.61,0.14-24.5l-0.56-6.19c-0.19-3.38,0.33-6.05,1.55-8.03c1.22-1.97,3.42-3.52,6.62-4.65
			C73.44,166.99,77.53,166.27,81.61,166.27 M87.83,281.89c1.43,0,3.44-0.65,6.03-1.94c3.56-1.69,6.66-4.31,9.29-7.88
			c3-3.94,5.16-8.07,6.48-12.39c6.01-18.39,4.88-36.13-3.38-53.22c-3-6.01-6.85-10.79-11.54-14.36c-4.06-3.04-7.96-4.56-11.71-4.56
			c-0.42,0-0.83,0.02-1.24,0.06c-0.56,1.13-0.84,3.94-0.84,8.45c0.18,6.57,0.84,18.77,1.97,36.61c1.13,17.84,1.59,31.63,1.41,41.39
			c0,4.13,0.66,6.62,1.97,7.46C86.67,281.76,87.19,281.89,87.83,281.89 M81.61,158.27L81.61,158.27c-4.98,0-10,0.89-14.92,2.64
			c-4.92,1.73-8.54,4.42-10.74,7.97c-2.09,3.37-3.01,7.64-2.73,12.68l0.01,0.14l0.01,0.14l0.52,5.74
			c-0.18,7.84-0.23,16.02-0.13,24.32c0.09,8.48,0.38,18.7,0.85,30.36c0.46,11.6,0.79,19.65,0.98,24.17
			c0.76,27.26,1.52,43.52,2.31,49.7c0.85,7.17,0.95,13.69,0.29,19.4c-0.77,5.52-0.13,10.39,1.91,14.46
			c3.16,6.34,8.78,10.01,15.8,10.32l0.18,0.01h0.18c7.61,0,13.63-3.96,16.58-10.89c1.38-2.85,2.09-5.79,2.12-8.76
			c0.54-13.55,0.31-23.64-0.69-30.76c1.28-0.26,2.72-0.66,4.37-1.21c15.7-4.63,27.66-15.63,35.57-32.72
			c5.53-11.88,8.25-24.2,8.06-36.6c0.18-16.57-3.13-31.79-9.86-45.23c-6.3-12.59-14.91-22.14-25.59-28.36
			C98.47,160.8,90.03,158.27,81.61,158.27L81.61,158.27z M92.32,271.65c0.07-9.77-0.42-23.04-1.46-39.51
			c-1.01-16.01-1.65-27.53-1.89-34.31c0.3,0.2,0.6,0.42,0.91,0.65c3.67,2.8,6.76,6.67,9.19,11.51c7.37,15.27,8.34,30.72,2.95,47.2
			l-0.02,0.08l-0.02,0.08c-1.03,3.38-2.78,6.7-5.19,9.87l-0.04,0.05l-0.04,0.05C95.37,269.14,93.92,270.57,92.32,271.65
			L92.32,271.65z"/>
	</g>
	<g class="st2">
		<path class="st3" d="M165.65,356.11c-3.18,0-6.06-1.05-8.57-3.13c-2.88-2.37-4.72-5.58-5.46-9.52l-0.03-0.17l-0.02-0.17
			c-0.2-1.93-0.39-4.45-0.58-7.48l-0.01-0.12v-0.12c0-2.09-0.08-10.5-0.28-28.11c-0.19-16.28-0.38-28.96-0.56-37.69
			c-0.19-8.66,0-21.47,0.57-38.09c0.56-16.5,0.84-28.81,0.84-36.61c0-3.95,1.02-7.18,3.04-9.6c2.04-2.45,4.81-3.96,8.23-4.49
			l0.17-0.03l0.17-0.01c0.37-0.03,0.73-0.04,1.09-0.04c3.22,0,6.12,1.02,8.6,3.03c2.78,2.26,4.45,5.35,4.97,9.2
			c0.59,4.88,0.88,10.54,0.88,16.86c0,1.39,0.11,4.04,0.27,7.72c0.4,9.45,1.14,27.05,1.14,51.98v70.96c0,2.61-0.49,5.05-1.47,7.25
			c-1.04,2.34-2.57,4.25-4.54,5.69c-1.96,1.44-4.16,2.31-6.52,2.57C166.93,356.06,166.28,356.11,165.65,356.11z M166.66,178.45
			c-3.05,0-7.4-1.06-10.77-6.13c-1.98-2.97-2.87-6.72-2.64-11.16c0.23-4.44,1.6-8.09,4.06-10.84c3.46-4.2,7.34-5.09,9.99-5.09
			c0.83,0,1.68,0.08,2.53,0.25c4.79,0.94,8.16,4,9.75,8.88c0.76,1.9,1.02,4.29,0.79,7.31c-0.49,5.15-0.75,6.65-1.03,7.44
			c-1.4,5.14-5.13,8.39-10.56,9.17C168.09,178.4,167.36,178.45,166.66,178.45z"/>
		<path class="st4" d="M167.3,149.23c0.58,0,1.17,0.06,1.77,0.18c3.38,0.66,5.63,2.77,6.76,6.34c0.56,1.32,0.75,3.19,0.56,5.63
			c-0.38,3.94-0.66,6.1-0.84,6.48c-0.94,3.76-3.38,5.91-7.32,6.48c-0.54,0.08-1.06,0.12-1.56,0.12c-3.04,0-5.52-1.45-7.45-4.34
			c-1.51-2.25-2.16-5.16-1.97-8.73c0.18-3.56,1.22-6.38,3.1-8.45C162.34,150.47,164.66,149.23,167.3,149.23 M164.25,184.72
			c2.29,0,4.32,0.71,6.09,2.14c1.97,1.6,3.14,3.8,3.52,6.62c0.56,4.69,0.84,10.14,0.84,16.33c0,5.26,1.41,25.16,1.41,59.69
			c-0.02,0-0.03,0-0.03,0s0.01,0,0.03,0c0,40.55,0,64.2,0,70.96c0,2.07-0.38,3.94-1.13,5.63c-0.75,1.69-1.83,3.05-3.24,4.08
			c-1.41,1.03-2.96,1.65-4.65,1.83c-0.49,0.07-0.98,0.1-1.45,0.1c-2.23,0-4.24-0.74-6.01-2.21c-2.16-1.78-3.52-4.18-4.08-7.18
			c-0.19-1.87-0.38-4.31-0.56-7.32c0-2.25-0.1-11.64-0.28-28.16c-0.19-16.52-0.38-29.1-0.56-37.73c-0.19-8.63,0-21.26,0.56-37.87
			c0.56-16.61,0.84-28.86,0.84-36.75c0-3,0.7-5.35,2.11-7.04c1.41-1.69,3.33-2.72,5.77-3.1
			C163.71,184.73,163.98,184.72,164.25,184.72 M176.41,269.5c0,0-0.07,0-0.29,0C176.19,269.5,176.41,269.5,176.41,269.5
			 M167.3,141.23L167.3,141.23c-3.51,0-8.6,1.13-13.03,6.49c-3.05,3.44-4.74,7.89-5.01,13.24c-0.28,5.31,0.83,9.88,3.31,13.59
			c1.1,1.66,2.38,3.07,3.79,4.23c-1.85,1-3.48,2.32-4.84,3.95c-2.63,3.15-3.96,7.25-3.96,12.16c0,7.76-0.28,20.03-0.84,36.47
			c-0.57,16.7-0.76,29.59-0.57,38.32c0.19,8.72,0.38,21.39,0.56,37.65c0.2,17.6,0.28,25.99,0.28,28.07v0.25l0.02,0.25
			c0.19,3.08,0.39,5.64,0.59,7.64l0.03,0.34l0.06,0.33c0.9,4.82,3.27,8.93,6.86,11.88c3.18,2.64,7.03,4.04,11.1,4.04
			c0.79,0,1.61-0.05,2.42-0.16c3.05-0.35,5.88-1.47,8.41-3.32c2.53-1.85,4.49-4.3,5.81-7.28c1.21-2.73,1.82-5.72,1.82-8.89V269.5v-8
			h-0.03c-0.13-20.8-0.76-35.71-1.12-44.14c-0.15-3.62-0.26-6.24-0.26-7.55c0-6.48-0.3-12.3-0.9-17.28l-0.01-0.06l-0.01-0.06
			c-0.65-4.82-2.86-8.89-6.41-11.77c-0.08-0.07-0.17-0.13-0.25-0.2c3.94-2.04,6.76-5.54,8.04-10.13c0.43-1.3,0.71-3.23,1.18-8.17
			l0.01-0.08l0.01-0.08c0.27-3.58-0.06-6.53-1.02-8.98c-2.07-6.18-6.58-10.24-12.74-11.44C169.49,141.34,168.38,141.23,167.3,141.23
			L167.3,141.23z"/>
	</g>
	<g>
		<path class="st0" d="M260.19,359.7c-1.94,0-3.94-0.38-5.95-1.14c-4.67-1.7-9.83-5.3-15.73-11l-0.1-0.1
			c-4.7-4.88-11.14-12.7-19.16-23.26c0.09,3.59,0.23,8.82,0.42,15.8c0.24,3.61,0.28,4.71,0.28,5.25v0.2l-0.02,0.2
			c-0.25,2.52-1.04,4.79-2.34,6.74c-1.21,1.81-2.69,3.35-4.38,4.56c-1.92,1.37-4.11,2.09-6.52,2.15c-0.59,0.08-1.18,0.12-1.75,0.12
			c-2.76,0-5.32-0.88-7.6-2.62c-2.61-1.99-4.54-4.81-5.73-8.39l-0.05-0.14l-0.04-0.14c-0.45-1.8-0.76-4.55-0.96-8.67
			c-1.32-38.28-1.22-81.38,0.28-128.16l0.01-0.12c0.18-2.95,1.08-14.25,2.82-35.56l0.02-0.16c0.23-1.87,0.8-3.84,1.7-5.87
			c2.16-5.23,6.21-8.11,11.41-8.11c0.44,0,0.9,0.02,1.36,0.06c5.98,0.53,10.13,4.08,11.68,10.01l0.04,0.15
			c0.46,2.06,0.58,4.9,0.37,8.68c-0.74,10.41-1.12,25.48-1.12,44.83c0,12.68-0.08,23.07-0.24,31.08
			c14.74-28.77,26.19-55.42,34.12-79.36c1.13-3.62,2.42-6.09,4.02-7.72c2.82-2.98,6.05-4.5,9.62-4.5c1.32,0,2.68,0.22,4.04,0.65
			c5.56,1.85,8.73,6.14,8.99,12.09l0,0.18c0,1.5-0.38,3.71-1.25,7.16c-8.89,33.29-24.19,68.86-45.47,105.78
			c-1.83,3.35-0.9,5.33,0.25,6.81c9.26,11.85,16.2,20.29,20.62,25.09c4.89,5.07,9.11,8.61,12.5,10.47c3.85,2.17,6.44,4.94,7.72,8.26
			c1.34,3.49,1.09,7.13-0.71,10.55c-1.57,3.34-4.18,5.75-7.75,7.15C263.83,359.36,262.02,359.7,260.19,359.7z"/>
		<path class="st1" d="M206.77,165.27c0.33,0,0.66,0.02,1,0.05c4.32,0.38,7.04,2.72,8.17,7.04c0.37,1.69,0.47,4.22,0.28,7.6
			c-0.75,10.52-1.13,25.53-1.13,45.05c0,19.53-0.19,33.42-0.56,41.67c0,0.19,0.09,1.51,0.28,3.94c1.13-0.75,2.53-2.82,4.22-6.2
			c16.52-31.54,29.1-60.35,37.73-86.45c0.94-3,1.97-5.07,3.1-6.19c2.05-2.18,4.3-3.28,6.74-3.28c0.92,0,1.86,0.15,2.83,0.46
			c3.94,1.32,6.01,4.13,6.2,8.45c0,1.13-0.38,3.19-1.13,6.2c-8.83,33.04-23.84,67.96-45.05,104.75c-2.25,4.13-2.07,7.88,0.56,11.26
			c9.38,12.01,16.33,20.46,20.84,25.34c5.25,5.45,9.76,9.2,13.52,11.26c3,1.69,4.97,3.76,5.91,6.2c0.94,2.44,0.75,4.88-0.56,7.32
			c-1.13,2.44-3,4.18-5.63,5.21c-1.26,0.49-2.56,0.74-3.9,0.74c-1.47,0-2.98-0.29-4.55-0.88c-4.13-1.5-8.92-4.88-14.36-10.14
			c-4.88-5.07-11.64-13.33-20.27-24.78c-0.19-0.37-1.69-2.44-4.51-6.2c-1.13,0.75-1.6,2.25-1.41,4.51c0,0.56,0.18,7.88,0.56,21.96
			c0.18,2.82,0.28,4.5,0.28,5.07c-0.19,1.88-0.75,3.52-1.69,4.93c-0.94,1.41-2.07,2.58-3.38,3.52c-1.32,0.94-2.82,1.41-4.51,1.41
			c-0.49,0.08-0.97,0.11-1.44,0.11c-1.88,0-3.6-0.6-5.18-1.8c-1.97-1.5-3.43-3.66-4.36-6.48c-0.38-1.5-0.66-4.13-0.84-7.88
			c-1.32-38.29-1.22-80.9,0.28-127.84c0.18-3,1.13-14.83,2.82-35.48c0.18-1.5,0.66-3.1,1.41-4.79
			C200.59,167.17,203.17,165.27,206.77,165.27 M206.77,157.27L206.77,157.27c-6.81,0-12.3,3.84-15.08,10.53
			c-1.05,2.37-1.72,4.71-1.99,6.96l-0.02,0.16l-0.01,0.16c-1.74,21.33-2.64,32.66-2.83,35.64l-0.01,0.12l0,0.12
			c-1.5,46.86-1.6,90.05-0.28,128.37l0,0.06l0,0.06c0.22,4.39,0.56,7.39,1.08,9.45l0.07,0.29l0.09,0.28
			c1.45,4.36,3.84,7.83,7.11,10.31c2.95,2.25,6.42,3.44,10.03,3.44c0.68,0,1.37-0.04,2.06-0.13c3.11-0.12,6.05-1.11,8.54-2.89
			c2.09-1.49,3.89-3.37,5.37-5.58c1.67-2.51,2.68-5.39,3-8.57l0.04-0.4v-0.4c0-0.63-0.05-1.77-0.29-5.44
			c-0.03-1.24-0.06-2.41-0.09-3.52c4.73,5.94,8.68,10.54,11.96,13.95l0.1,0.1l0.1,0.1c6.3,6.09,11.91,9.98,17.15,11.89
			c2.45,0.91,4.91,1.38,7.32,1.38c2.34,0,4.64-0.44,6.82-1.29c4.46-1.75,7.86-4.88,9.87-9.08c2.32-4.44,2.62-9.2,0.87-13.76
			c-1.63-4.23-4.81-7.69-9.46-10.3l-0.04-0.02l-0.04-0.02c-2.08-1.14-5.77-3.76-11.55-9.74c-4.35-4.72-11.2-13.06-20.35-24.78
			c-0.45-0.58-0.7-0.91,0.12-2.44c21.43-37.19,36.84-73.05,45.8-106.58l0.02-0.06l0.02-0.06c0.96-3.83,1.36-6.26,1.36-8.13v-0.18
			l-0.01-0.18c-0.33-7.61-4.58-13.33-11.66-15.68l-0.06-0.02l-0.06-0.02c-1.75-0.55-3.51-0.83-5.24-0.83
			c-3.23,0-8.02,0.99-12.5,5.72c-2.04,2.09-3.62,5.05-4.96,9.3c-6.41,19.36-15.16,40.53-26.09,63.14c0.02-4.21,0.04-8.77,0.04-13.67
			c0-19.26,0.37-34.23,1.11-44.48l0-0.07l0-0.07c0.23-4.21,0.08-7.31-0.46-9.77l-0.03-0.15l-0.04-0.15
			c-1.98-7.58-7.52-12.31-15.21-12.99C207.91,157.3,207.33,157.27,206.77,157.27L206.77,157.27z"/>
	</g>
	<g>
		<path class="st0" d="M311.16,360.71c-5.22,0-10.57-1.29-15.89-3.83c-11.54-5.51-18.48-13.2-20.63-22.88
			c-0.87-3.92-1.07-7.18-0.6-9.97l0.02-0.13l0.03-0.13c1.28-5.39,4.61-8.94,9.63-10.26c1.43-0.39,2.87-0.59,4.25-0.59
			c3.83,0,7.32,1.57,10.11,4.54l0.08,0.09l0.08,0.09c1.2,1.45,2.33,3.44,3.43,6.08l0.06,0.14l0.05,0.14c0.85,2.54,2.32,4.5,4.5,5.98
			c1.76,1.19,3.43,1.8,4.98,1.8c0.25,0,0.5-0.02,0.75-0.05c2.14-0.4,3.76-1.45,5.12-3.32c1.5-2.07,2.32-4.52,2.48-7.47v-3.56
			c-0.18-17.87-4.7-33.72-13.43-47.09l-0.05-0.09c-1.45-2.35-5.04-8.37-11.3-18.93c-10.83-19.26-10.95-39.48-0.41-60.17
			c6.41-12.61,17.46-20.16,32.83-22.42c1.19-0.19,2.46-0.29,3.72-0.29c4.33,0,8.75,1.19,13.12,3.54c4.46,2.35,7.48,5.77,8.94,10.14
			c2.02,5.83,0.69,11.09-3.79,14.77l-0.17,0.13c-2.69,1.98-5.45,2.99-8.19,2.99c-2.25,0-4.44-0.68-6.5-2.01
			c-1.84-1.25-3.41-1.86-4.75-1.86c-0.53,0-1.02,0.09-1.52,0.28c-4.05,1.5-6.71,3.56-7.93,6.14c-6.21,12.93-6.26,24.23-0.17,34.55
			c1.64,2.73,4.05,6.9,7.36,12.73c3.15,5.55,5.57,9.66,7.21,12.2l0.11,0.18c7.79,13.63,12.13,28.54,12.91,44.31l0,0.2
			c0,0.57,0.07,2.2,0.41,6.74c0.4,5.27,0.36,6.89,0.28,7.72c-0.06,0.62-0.18,2.3-0.41,6.85l-0.01,0.19l-0.03,0.19
			c-1.68,11.52-7.95,20.63-18.65,27.07C323.37,358.94,317.3,360.71,311.16,360.71z"/>
		<path class="st1" d="M330.97,172.39c3.68,0,7.42,1.02,11.22,3.06c3.56,1.88,5.91,4.51,7.04,7.88c1.5,4.32,0.66,7.79-2.53,10.42
			c-2,1.47-3.94,2.21-5.82,2.21c-1.48,0-2.92-0.45-4.32-1.36c-2.44-1.67-4.75-2.5-6.93-2.5c-1,0-1.98,0.18-2.93,0.53
			c-5.07,1.88-8.45,4.6-10.14,8.17c-6.76,14.08-6.76,26.85,0,38.3c1.69,2.82,4.13,7.04,7.32,12.67c3.19,5.63,5.63,9.76,7.32,12.39
			c7.51,13.14,11.64,27.31,12.39,42.52c0,0.94,0.14,3.29,0.42,7.04c0.28,3.76,0.37,6.1,0.28,7.04c-0.1,0.94-0.24,3.29-0.42,7.04
			c-1.5,10.33-7.09,18.4-16.75,24.22c-5.21,3.14-10.54,4.71-15.96,4.71c-4.64,0-9.36-1.15-14.16-3.44
			c-10.42-4.97-16.57-11.69-18.44-20.13c-0.75-3.38-0.94-6.2-0.56-8.45c0.94-3.94,3.19-6.38,6.76-7.32c1.12-0.31,2.2-0.46,3.23-0.46
			c2.74,0,5.14,1.09,7.19,3.28c0.94,1.13,1.87,2.82,2.82,5.07c1.13,3.38,3.14,6.05,6.05,8.03c2.44,1.65,4.85,2.48,7.23,2.48
			c0.46,0,0.91-0.03,1.36-0.09c3.19-0.56,5.77-2.2,7.74-4.93c1.97-2.72,3.05-5.96,3.24-9.71c0-0.18,0-1.41,0-3.66
			c-0.19-18.77-4.88-35.2-14.08-49.28c-1.51-2.44-5.26-8.73-11.26-18.87c-10.14-18.02-10.23-36.79-0.28-56.32
			c5.82-11.45,15.77-18.21,29.85-20.27C328.87,172.47,329.92,172.39,330.97,172.39 M330.97,164.39c-1.45,0-2.91,0.11-4.34,0.34
			c-16.71,2.47-28.75,10.73-35.77,24.56c-11.19,21.95-11.04,43.44,0.44,63.86l0.04,0.08l0.05,0.08c6.36,10.74,9.86,16.6,11.34,18.99
			l0.05,0.09l0.06,0.09c8.3,12.7,12.6,27.82,12.78,44.94v3.4c-0.13,2.12-0.69,3.83-1.72,5.24c-0.71,0.98-1.44,1.49-2.47,1.71
			c-0.05,0-0.1,0.01-0.16,0.01c-0.91,0-1.99-0.6-2.74-1.11c-1.45-0.98-2.39-2.23-2.95-3.93l-0.09-0.28l-0.11-0.27
			c-1.26-3.02-2.58-5.34-4.05-7.1l-0.15-0.18l-0.16-0.17c-3.56-3.8-8.07-5.8-13.03-5.8c-1.72,0-3.51,0.25-5.3,0.73
			c-6.42,1.71-10.85,6.39-12.47,13.2l-0.06,0.26l-0.04,0.27c-0.55,3.31-0.34,7.07,0.64,11.51c2.43,10.93,10.1,19.55,22.81,25.61
			c5.86,2.8,11.79,4.22,17.61,4.22c6.88,0,13.64-1.97,20.09-5.85c11.77-7.08,18.69-17.15,20.54-29.92l0.05-0.38l0.02-0.38
			c0.23-4.71,0.35-6.17,0.39-6.62c0.11-1.15,0.15-2.93-0.26-8.46c-0.37-4.95-0.4-6.18-0.4-6.44v-0.2l-0.01-0.2
			c-0.81-16.4-5.33-31.91-13.43-46.09l-0.1-0.18l-0.11-0.18c-1.6-2.48-3.98-6.52-7.09-12c-3.32-5.85-5.74-10.04-7.4-12.81
			c-5.35-9.08-5.24-19.14,0.33-30.75c0.77-1.63,2.69-3.01,5.71-4.13c0.09-0.03,0.11-0.03,0.14-0.03c0.08,0,0.84,0.03,2.42,1.11
			l0.08,0.06l0.08,0.05c2.71,1.76,5.63,2.65,8.67,2.65c3.62,0,7.17-1.27,10.56-3.77l0.17-0.13l0.17-0.14
			c5.76-4.74,7.59-11.73,5.02-19.17c-1.77-5.27-5.52-9.55-10.85-12.36C341.01,165.74,335.96,164.39,330.97,164.39L330.97,164.39z"/>
	</g>
	<g>
		<path class="st0" d="M401,357.73c-3.39,0-9.52-1.29-12.65-9.88c-0.95-2.21-1.41-5.18-1.41-9.08c0.19-15.46,0.28-28.06,0.28-38.58
			l0.01-0.21c0.06-1.16-0.11-2.21-0.58-3.63c-0.48-1.43-1.16-2.92-2.04-4.43c-0.48-0.83-0.92-1.69-1.29-2.55
			c-0.65-1.51-1.31-3.59-2.03-6.35c-0.7-2.7-0.96-3.51-1.04-3.72l-0.08-0.16l-0.09-0.28c-6.96-21.99-14.2-52.27-21.51-89.99
			c-1.38-7.37-1.68-9.05-1.74-9.68c0,0,0-0.05-0.01-0.07c-0.98-10.71,5.48-14.09,9.42-15.15c1.5-0.39,2.9-0.58,4.21-0.58
			c3.38,0,9.41,1.34,11.91,10.27c0.48,1.39,1.75,5.96,6.55,25.6l9.49,37.97c1.97-7.78,4.55-16.88,7.72-27.21
			c5.29-17.27,8.82-29.86,10.48-37.42c2.21-10.11,8.69-11.62,12.36-11.62c0.33,0,0.66,0.01,1,0.03c3.49,0.04,6.6,1.47,9.01,4.14
			c2.3,2.55,3.59,5.73,3.84,9.45c0.22,2.91-0.44,7.15-2.07,13.31c-0.62,2.85-3.67,15.05-9.59,38.34
			c-5.75,22.64-10.11,40.33-12.93,52.57c-2.52,11.86-3.53,22.08-3.01,30.3c0.14,1.4,0.36,6.42,0.86,30.66
			c0,3.25-0.22,5.68-0.68,7.52l-0.05,0.2l-0.07,0.19c-2.25,6.24-6.77,9.68-13.1,9.96C401.76,357.72,401.38,357.73,401,357.73z"/>
		<path class="st1" d="M428.96,165c0.27,0,0.55,0.01,0.84,0.03c2.44,0,4.5,0.94,6.19,2.82c1.69,1.88,2.63,4.22,2.82,7.04
			c0.18,2.44-0.47,6.48-1.97,12.11c-0.56,2.63-3.76,15.39-9.57,38.29c-5.82,22.9-10.14,40.46-12.95,52.65
			c-2.63,12.39-3.66,22.91-3.1,31.54c0.19,1.69,0.47,11.83,0.85,30.41c0,2.82-0.19,4.98-0.56,6.48c-1.69,4.7-4.88,7.14-9.57,7.32
			c-0.32,0.03-0.62,0.04-0.93,0.04c-4.2,0-7.18-2.45-8.93-7.36c-0.75-1.69-1.13-4.22-1.13-7.6c0.18-15.02,0.28-27.88,0.28-38.58
			c0.1-1.98-0.28-3.62-0.78-5.1c-0.6-1.8-1.42-3.53-2.38-5.17c-0.41-0.71-0.77-1.41-1.07-2.12c-0.56-1.31-1.17-3.24-1.83-5.77
			c-0.66-2.53-1.08-3.99-1.27-4.36c-6.95-21.96-14.08-51.81-21.4-89.54c-1.13-6.01-1.69-9.1-1.69-9.29
			c-0.56-6.01,1.59-9.67,6.48-10.98c1.13-0.29,2.19-0.44,3.17-0.44c4.03,0,6.73,2.49,8.09,7.48c0.56,1.5,2.72,9.95,6.48,25.34
			c5.44,21.78,9.29,37.17,11.54,46.18c0.56,2.63,1.41,4.6,2.53,5.91c1.87-9.95,5.49-23.65,10.84-41.11
			c5.35-17.46,8.87-30.03,10.56-37.73C421.74,167.83,424.56,165,428.96,165 M428.96,157c-3.92,0-13.36,1.44-16.27,14.77
			c-1.63,7.44-5.13,19.92-10.39,37.09c-1.35,4.4-2.59,8.59-3.73,12.54c-1.67-6.68-3.6-14.38-5.78-23.12
			c-5.12-20.97-6.19-24.63-6.62-25.84c-3.36-11.76-12.09-13.04-15.72-13.04c-1.65,0-3.39,0.23-5.17,0.69l-0.04,0.01l-0.04,0.01
			c-8.57,2.31-13.19,9.45-12.39,19.15c0.04,0.79,0.29,2.17,1.82,10.33l0,0.02l0,0.02c7.35,37.87,14.62,68.29,21.63,90.43l0.18,0.56
			l0.09,0.18c0.11,0.34,0.36,1.22,0.89,3.23c0.76,2.95,1.49,5.22,2.22,6.92c0.43,1,0.94,2,1.5,2.98c0.74,1.27,1.31,2.51,1.7,3.68
			c0.31,0.93,0.41,1.51,0.38,2.15l-0.01,0.21v0.21c0,10.51-0.09,23.1-0.28,38.48l0,0.05v0.05c0,4.46,0.54,7.82,1.69,10.55
			c2.91,7.89,8.86,12.41,16.37,12.41c0.46,0,0.93-0.02,1.4-0.05c7.82-0.37,13.87-4.95,16.62-12.6l0.14-0.38l0.1-0.39
			c0.54-2.16,0.8-4.91,0.8-8.41v-0.08l0-0.08c-0.54-26.46-0.76-29.84-0.87-30.93c-0.49-7.83,0.5-17.63,2.94-29.13
			c2.82-12.2,7.16-29.84,12.9-52.41c7.6-29.91,9.17-36.43,9.6-38.39c1.73-6.53,2.42-11.16,2.17-14.55
			c-0.32-4.63-1.95-8.61-4.85-11.83c-3.15-3.5-7.24-5.38-11.83-5.46C429.72,157.02,429.34,157,428.96,157L428.96,157z"/>
	</g>
</g>
<g>
	<g>
		<g>
			<path class="st1" d="M146.55,357.88c-0.16,0-0.32-0.01-0.48-0.03c-1.53-0.21-2.74-1.4-2.97-2.92l-7.24-46.16
				c-0.17-1.09,0.19-2.21,0.96-3c0.66-0.67,1.56-1.05,2.5-1.05c0.16,0,0.32,0.01,0.48,0.03l26.82,3.74c1.1,0.15,2.06,0.82,2.59,1.79
				c0.53,0.97,0.57,2.14,0.11,3.14l-19.58,42.42C149.15,357.1,147.9,357.88,146.55,357.88z"/>
			<path class="st1" d="M139.31,308.22l26.82,3.74l-19.58,42.42L139.31,308.22 M139.31,301.22c-1.86,0-3.67,0.74-4.99,2.09
				c-1.55,1.58-2.27,3.8-1.92,5.99l7.24,46.16c0.48,3.05,2.89,5.42,5.95,5.85c0.32,0.05,0.65,0.07,0.97,0.07
				c2.7,0,5.2-1.56,6.35-4.07l19.58-42.42c0.93-2.01,0.85-4.34-0.21-6.29c-1.06-1.94-2.98-3.27-5.18-3.58l-26.82-3.74
				C139.95,301.25,139.63,301.22,139.31,301.22L139.31,301.22z"/>
		</g>
		<g>
			<path class="st1" d="M143.04,317.67c-0.16,0-0.32-0.01-0.48-0.03c-1.02-0.14-1.93-0.73-2.48-1.61l-3.73-5.95
				c-0.44-0.7-0.61-1.53-0.5-2.34l19.37-139.05c0.24-1.75,1.74-3.02,3.46-3.02c0.16,0,0.32,0.01,0.49,0.03l8.94,1.25
				c0.92,0.13,1.75,0.62,2.31,1.36s0.8,1.67,0.67,2.59l-19.37,139.05c-0.11,0.82-0.51,1.56-1.12,2.12l-5.21,4.7
				C144.73,317.35,143.9,317.67,143.04,317.67z"/>
			<path class="st1" d="M158.68,169.17l8.94,1.25l-19.37,139.05l-5.21,4.7l-3.73-5.95L158.68,169.17 M158.67,162.17
				c-3.44,0-6.44,2.53-6.92,6.03l-19.37,139.05c-0.23,1.63,0.13,3.29,1,4.68l3.73,5.95c1.1,1.75,2.92,2.93,4.96,3.21
				c0.32,0.04,0.65,0.07,0.97,0.07c1.72,0,3.39-0.63,4.69-1.8l5.21-4.7c1.22-1.1,2.02-2.6,2.24-4.23l19.37-139.05
				c0.26-1.84-0.23-3.7-1.35-5.19c-1.12-1.48-2.78-2.46-4.62-2.71l-8.94-1.25C159.32,162.2,158.99,162.17,158.67,162.17
				L158.67,162.17z"/>
		</g>
		<g>
			<path class="st1" d="M151.98,318.92c-0.16,0-0.32-0.01-0.48-0.03c-1.02-0.14-1.93-0.73-2.48-1.61l-3.73-5.95
				c-0.44-0.7-0.61-1.53-0.5-2.34l19.37-139.05c0.13-0.92,0.62-1.75,1.36-2.31c0.61-0.46,1.35-0.71,2.11-0.71
				c0.16,0,0.32,0.01,0.48,0.03l8.94,1.25c1.91,0.27,3.25,2.03,2.98,3.95L160.65,311.2c-0.11,0.81-0.51,1.56-1.12,2.12l-5.21,4.7
				C153.67,318.6,152.84,318.92,151.98,318.92z"/>
			<path class="st1" d="M167.62,170.42l8.94,1.25l-19.37,139.05l-5.21,4.7l-3.73-5.95L167.62,170.42 M167.61,163.42
				c-3.44,0-6.44,2.53-6.92,6.03L141.31,308.5c-0.23,1.63,0.13,3.29,1,4.68l3.73,5.95c1.1,1.75,2.92,2.93,4.96,3.21
				c0.32,0.04,0.65,0.07,0.97,0.07c1.72,0,3.39-0.63,4.69-1.8l5.21-4.7c1.22-1.1,2.02-2.6,2.24-4.23l19.37-139.05
				c0.26-1.84-0.23-3.7-1.35-5.19c-1.12-1.48-2.78-2.46-4.62-2.71l-8.94-1.25C168.26,163.44,167.93,163.42,167.61,163.42
				L167.61,163.42z"/>
		</g>
		<g>
			<path class="st1" d="M160.91,320.16c-0.16,0-0.32-0.01-0.48-0.03c-1.02-0.14-1.93-0.73-2.48-1.61l-3.73-5.95
				c-0.44-0.7-0.61-1.53-0.5-2.34l19.37-139.05c0.24-1.75,1.74-3.02,3.46-3.02c0.16,0,0.32,0.01,0.49,0.03l8.94,1.25
				c0.92,0.13,1.75,0.62,2.31,1.36s0.8,1.67,0.67,2.59l-19.37,139.05c-0.11,0.81-0.51,1.56-1.12,2.12l-5.21,4.7
				C162.61,319.84,161.77,320.16,160.91,320.16z"/>
			<path class="st1" d="M176.56,171.67l8.94,1.25l-19.37,139.05l-5.21,4.7l-3.73-5.95L176.56,171.67 M176.55,164.66
				c-3.44,0-6.44,2.53-6.92,6.03l-19.37,139.05c-0.23,1.63,0.13,3.29,1,4.68l3.73,5.95c1.1,1.75,2.92,2.93,4.96,3.21
				c0.32,0.04,0.65,0.07,0.97,0.07c1.72,0,3.39-0.63,4.69-1.8l5.21-4.7c1.22-1.1,2.02-2.6,2.24-4.23l19.37-139.05
				c0.26-1.84-0.23-3.7-1.35-5.19c-1.12-1.48-2.78-2.46-4.62-2.71l-8.94-1.25C177.2,164.69,176.87,164.66,176.55,164.66
				L176.55,164.66z"/>
		</g>
		<g>
			<path class="st1" d="M146.55,357.88c-0.16,0-0.32-0.01-0.48-0.03c-1.53-0.21-2.74-1.4-2.97-2.92l-1.44-9.2
				c-0.11-0.68-0.01-1.37,0.27-1.99c1.22-2.68,3.44-4.28,5.93-4.28c2.57,0,5.44,1.84,6.06,5.95c0.1,0.68,0,1.37-0.28,1.99l-3.9,8.46
				C149.15,357.1,147.9,357.88,146.55,357.88z"/>
			<path class="st1" d="M147.85,342.95c1.19,0,2.3,1.03,2.6,2.97l-3.9,8.46l-1.44-9.2C145.79,343.68,146.85,342.95,147.85,342.95
				 M147.85,335.95c-3.85,0-7.34,2.43-9.12,6.33c-0.57,1.25-0.76,2.63-0.54,3.98l1.44,9.2c0.48,3.05,2.89,5.42,5.95,5.85
				c0.32,0.05,0.65,0.07,0.97,0.07c2.7,0,5.2-1.56,6.35-4.07l3.9-8.46c0.57-1.24,0.77-2.63,0.57-3.98
				C156.58,339.62,152.66,335.95,147.85,335.95L147.85,335.95z"/>
		</g>
		<g>
			<path class="st1" d="M185.5,176.41c-0.16,0-0.32-0.01-0.48-0.03l-26.82-3.74c-0.92-0.13-1.75-0.62-2.31-1.36
				c-0.56-0.74-0.8-1.67-0.67-2.59l1.14-8.17c0.24-1.75,1.74-3.02,3.46-3.02c0.16,0,0.32,0.01,0.49,0.03l26.82,3.74
				c1.91,0.27,3.25,2.03,2.98,3.95l-1.14,8.17c-0.13,0.92-0.62,1.75-1.36,2.31C187,176.16,186.25,176.41,185.5,176.41z"/>
			<path class="st1" d="M159.82,161l26.82,3.74l-1.14,8.17l-26.82-3.74L159.82,161 M159.81,154c-3.44,0-6.44,2.53-6.92,6.03
				l-1.14,8.17c-0.26,1.84,0.23,3.7,1.35,5.19c1.12,1.48,2.78,2.46,4.62,2.71l26.82,3.74c0.33,0.05,0.65,0.07,0.97,0.07
				c3.44,0,6.44-2.53,6.92-6.03l1.14-8.17c0.53-3.83-2.14-7.37-5.97-7.9l-26.82-3.74C160.46,154.02,160.13,154,159.81,154
				L159.81,154z"/>
		</g>
		<g>
			<path class="st1" d="M186.64,168.24c-0.16,0-0.32-0.01-0.48-0.03l-26.82-3.74c-1.91-0.27-3.25-2.03-2.98-3.95l1.98-14.21
				c0.53-3.78,3.2-6.52,6.36-6.52c0.24,0,0.49,0.02,0.73,0.05l21.61,3.01c3.4,0.48,5.62,4.06,5.05,8.16l-1.98,14.21
				c-0.13,0.92-0.62,1.75-1.36,2.31C188.13,167.99,187.39,168.24,186.64,168.24z"/>
			<path class="st1" d="M164.69,143.29c0.08,0,0.17,0.01,0.25,0.02l21.61,3.01c1.44,0.2,2.36,2.09,2.07,4.21l-1.98,14.21L159.82,161
				l1.98-14.21C162.08,144.79,163.34,143.29,164.69,143.29 M164.69,136.29C164.69,136.29,164.69,136.29,164.69,136.29
				c-4.92,0-9.05,4.01-9.82,9.54l-1.98,14.21c-0.26,1.84,0.23,3.7,1.35,5.19c1.12,1.48,2.78,2.46,4.62,2.71l26.82,3.74
				c0.32,0.04,0.64,0.07,0.97,0.07c1.51,0,3-0.49,4.22-1.41c1.48-1.12,2.46-2.78,2.71-4.62l1.98-14.21
				c0.84-6.05-2.69-11.37-8.04-12.11l-21.61-3.01C165.5,136.32,165.1,136.29,164.69,136.29L164.69,136.29z"/>
		</g>
	</g>
	<g>
		<polygon class="st5" points="139.31,308.22 146.55,354.38 166.12,311.96 		"/>
		<polygon class="st0" points="158.68,169.17 139.31,308.22 143.04,314.17 148.25,309.47 167.62,170.42 		"/>
		<polygon class="st6" points="167.62,170.42 148.25,309.47 151.98,315.42 157.19,310.72 176.56,171.67 		"/>
		<polygon class="st7" points="176.56,171.67 157.19,310.72 160.91,316.66 166.12,311.96 185.5,172.91 		"/>
		<path d="M145.1,345.18l1.44,9.2l3.9-8.46l0,0C149.91,342.34,146.6,341.88,145.1,345.18L145.1,345.18z"/>
		
			<rect x="168.53" y="153.42" transform="matrix(0.138 -0.9904 0.9904 0.138 -16.5243 314.9249)" class="st8" width="8.25" height="27.07"/>
		<path class="st9" d="M159.82,161l1.98-14.21c0.3-2.13,1.7-3.69,3.14-3.49l21.61,3.01c1.44,0.2,2.36,2.09,2.07,4.21l-1.98,14.21
			L159.82,161z"/>
	</g>
</g>
</svg>
